<?xml version="1.0" standalone="no"?>
<!DOCTYPE svg PUBLIC "-//W3C//DTD SVG 20010904//EN"
 "http://www.w3.org/TR/2001/REC-SVG-20010904/DTD/svg10.dtd">
<svg version="1.0" xmlns="http://www.w3.org/2000/svg"
 width="256.000000pt" height="240.000000pt" viewBox="0 0 256.000000 240.000000"
 preserveAspectRatio="xMidYMid meet">

<g transform="translate(0.000000,240.000000) scale(0.100000,-0.100000)"
fill="#000000" stroke="none">
<path d="M925 1976 l-290 -285 68 0 67 -1 220 216 220 217 227 -221 c126 -121
255 -248 288 -281 l59 -61 243 0 243 0 0 45 0 45 -217 0 -217 0 -221 218
c-121 119 -261 256 -310 305 l-91 87 -289 -284z"/>
<path d="M999 1861 l-199 -201 -310 0 -310 0 0 -50 0 -50 327 0 326 0 183 180
c101 99 189 180 196 180 7 0 94 -81 193 -180 l180 -180 64 0 63 0 -242 248
c-134 136 -249 249 -257 250 -8 2 -102 -85 -214 -197z"/>
<path d="M1063 1717 l-148 -147 70 0 70 0 77 77 78 78 78 -78 78 -78 67 3 67
3 -145 145 -144 144 -148 -147z"/>
<path d="M1222 1524 c-6 -11 -76 -192 -157 -404 -147 -388 -170 -433 -219
-443 -11 -2 24 -5 79 -5 72 -1 95 1 83 9 -10 5 -18 21 -18 34 0 27 77 253 93
273 7 9 44 12 141 10 l131 -3 58 -145 c32 -80 56 -152 54 -161 -7 -25 54 -30
290 -22 120 4 190 10 165 13 -23 4 -47 11 -53 17 -19 19 -28 93 -29 240 l0
143 26 6 c15 4 78 4 140 1 125 -7 170 -22 180 -62 9 -38 24 -30 24 13 0 20 4
53 10 71 5 19 8 36 6 38 -2 2 -26 -3 -52 -12 -38 -12 -82 -15 -189 -13 l-140
3 0 160 0 160 150 0 c83 0 162 -3 177 -8 18 -4 35 -21 47 -45 13 -25 21 -32
25 -22 7 23 27 123 24 124 -2 1 -158 -1 -348 -4 -190 -3 -333 -7 -319 -8 14
-1 40 -7 57 -13 51 -18 54 -45 50 -410 -3 -291 -5 -328 -21 -352 -21 -32 -45
-34 -81 -6 -38 30 -65 89 -221 479 -76 190 -142 349 -146 354 -4 4 -12 0 -17
-10z m58 -324 l57 -155 -115 -3 c-63 -1 -116 -1 -118 1 -7 7 101 317 110 314
4 -1 34 -72 66 -157z"/>
<path d="M185 1490 c-4 -6 6 -10 22 -10 48 0 71 -11 83 -39 7 -19 10 -134 8
-373 -3 -324 -4 -347 -22 -367 -11 -12 -33 -22 -50 -23 -17 0 59 -5 169 -9
281 -12 399 10 487 89 77 69 93 136 54 216 -31 62 -84 103 -179 138 l-58 21
59 57 c96 91 106 161 33 231 -61 57 -122 69 -380 74 -142 3 -222 2 -226 -5z
m442 -48 c107 -55 124 -225 29 -283 -42 -26 -220 -28 -230 -3 -3 9 -6 78 -6
155 0 135 1 140 23 149 35 16 138 5 184 -18z m35 -360 c176 -78 223 -288 81
-358 -27 -13 -66 -20 -134 -22 -111 -4 -163 11 -179 53 -12 30 -14 338 -2 349
14 15 188 -1 234 -22z"/>
<path d="M180 540 l0 -50 1040 0 1040 0 0 50 0 50 -1040 0 -1040 0 0 -50z"/>
<path d="M1717 462 c-23 -14 -36 -32 -23 -32 14 0 66 24 66 30 0 17 -16 18
-43 2z"/>
<path d="M204 448 c-3 -4 0 -8 5 -8 16 0 14 -183 -1 -198 -9 -9 1 -12 48 -12
48 0 65 4 79 20 22 24 23 65 2 88 -12 13 -15 29 -11 53 4 24 1 39 -9 47 -16
14 -106 22 -113 10z m91 -37 c7 -24 -4 -51 -21 -51 -9 0 -14 12 -14 35 0 38
24 50 35 16z m11 -96 c21 -32 10 -65 -22 -65 -22 0 -24 4 -24 45 0 52 19 61
46 20z"/>
<path d="M1284 448 c-3 -5 0 -8 6 -8 8 0 10 -32 8 -105 l-3 -105 40 0 c32 1
37 3 23 11 -21 12 -25 79 -5 79 7 0 30 -20 50 -45 35 -41 42 -45 82 -45 34 0
43 3 39 14 -3 8 0 24 6 36 17 31 52 22 69 -17 14 -33 15 -33 84 -33 59 0 68 2
57 14 -7 10 -10 43 -8 95 3 81 3 81 -22 81 l-25 0 3 -90 c3 -70 0 -90 -10 -90
-26 0 -36 16 -70 100 -19 47 -38 85 -42 85 -5 0 -24 -38 -41 -85 -18 -46 -37
-86 -43 -88 -12 -4 -72 64 -72 83 0 7 5 17 10 20 15 9 12 71 -4 84 -15 13
-125 20 -132 9z m104 -30 c27 -27 7 -78 -30 -78 -15 0 -18 8 -18 45 0 37 3 45
18 45 10 0 23 -5 30 -12z m180 -97 c-15 -5 -21 7 -13 26 7 17 8 17 15 -2 4
-11 3 -22 -2 -24z"/>
<path d="M668 424 c-5 -4 -8 -47 -8 -95 0 -60 -4 -89 -12 -92 -7 -3 5 -6 27
-6 30 -1 36 2 27 11 -7 7 -12 37 -12 67 l0 55 63 -67 c34 -37 68 -67 75 -67 9
0 12 25 12 89 0 62 4 91 13 94 6 3 -6 6 -27 6 -31 1 -37 -2 -28 -11 7 -7 12
-37 12 -67 l0 -55 -67 73 c-38 40 -71 70 -75 65z"/>
<path d="M1062 414 c-33 -23 -27 -55 17 -98 22 -22 37 -45 34 -52 -7 -19 -52
-18 -59 1 -9 22 -24 18 -24 -5 0 -26 41 -43 73 -31 58 22 59 72 2 115 -41 32
-46 56 -10 56 14 0 25 -4 25 -10 0 -5 5 -10 10 -10 16 0 11 37 -6 44 -24 9
-38 7 -62 -10z"/>
<path d="M1844 423 c-67 -13 -95 -122 -42 -168 51 -44 148 -40 148 6 0 21 -1
21 -18 6 -45 -41 -122 1 -122 66 0 43 26 67 72 67 26 0 40 -6 51 -22 l16 -23
0 31 c1 27 -3 32 -30 38 -33 6 -39 6 -75 -1z"/>
<path d="M2162 414 c-33 -23 -27 -56 19 -98 22 -21 38 -43 36 -49 -6 -19 -56
-21 -63 -3 -7 19 -24 11 -24 -10 0 -22 44 -35 79 -23 55 19 53 70 -4 114 -19
14 -35 33 -35 41 0 17 41 19 58 2 9 -9 12 -7 12 9 0 34 -41 43 -78 17z"/>
<path d="M400 401 c13 -24 13 -95 1 -139 -10 -32 -9 -32 27 -32 28 0 33 3 24
12 -7 7 -12 41 -12 83 0 42 5 76 12 83 9 9 4 12 -25 12 -34 0 -37 -2 -27 -19z"/>
<path d="M498 408 c7 -7 12 -41 12 -83 0 -42 -5 -76 -12 -83 -9 -9 2 -12 49
-12 47 0 62 4 67 16 4 9 3 20 0 23 -4 3 -9 0 -11 -6 -3 -7 -16 -13 -29 -13
-21 0 -24 5 -24 35 0 36 15 46 38 23 12 -12 14 -6 12 30 -1 4 -12 6 -25 4 -22
-3 -25 0 -25 27 0 24 4 31 20 31 11 0 20 -5 20 -11 0 -5 5 -7 10 -4 6 3 10 13
10 21 0 11 -15 14 -62 14 -48 0 -59 -3 -50 -12z"/>
<path d="M888 408 c16 -16 16 -150 0 -166 -9 -9 2 -12 50 -12 55 0 62 2 62 20
0 17 -3 18 -19 9 -26 -17 -51 -4 -51 26 0 30 24 43 45 25 13 -10 15 -9 15 12
0 19 -5 24 -27 23 -23 0 -28 4 -28 25 0 18 6 26 23 28 12 2 22 -2 22 -8 0 -6
5 -8 10 -5 6 3 10 13 10 21 0 11 -15 14 -62 14 -48 0 -59 -3 -50 -12z"/>
<path d="M1989 411 c10 -6 12 -30 10 -95 l-4 -86 53 0 c38 0 54 4 59 15 3 9 2
19 -2 23 -4 4 -10 1 -12 -5 -3 -7 -16 -13 -29 -13 -21 0 -24 5 -24 35 0 28 4
35 20 35 11 0 20 -6 20 -12 0 -9 4 -8 10 2 18 28 12 40 -20 34 -28 -6 -30 -5
-30 25 0 24 4 31 20 31 11 0 20 -4 20 -10 0 -5 5 -10 10 -10 6 0 10 9 10 20 0
18 -7 20 -62 20 -39 0 -58 -4 -49 -9z"/>
</g>
</svg>
