<?xml version="1.0" standalone="no"?>
<!DOCTYPE svg PUBLIC "-//W3C//DTD SVG 20010904//EN"
 "http://www.w3.org/TR/2001/REC-SVG-20010904/DTD/svg10.dtd">
<svg version="1.0" xmlns="http://www.w3.org/2000/svg"
 width="256.000000pt" height="240.000000pt" viewBox="0 0 256.000000 240.000000"
 preserveAspectRatio="xMidYMid meet">
<metadata>
Created by potrace 1.16, written by Peter Selinger 2001-2019
</metadata>
<g transform="translate(0.000000,240.000000) scale(0.100000,-0.100000)"
fill="#000000" stroke="none">
<path d="M925 1976 l-290 -285 68 0 67 -1 220 216 220 217 227 -221 c126 -121
255 -248 288 -281 l59 -61 243 0 243 0 0 45 0 45 -217 0 -217 0 -221 218
c-121 119 -261 256 -310 305 l-91 87 -289 -284z"/>
<path d="M999 1861 l-199 -201 -310 0 -310 0 0 -50 0 -50 327 0 326 0 183 180
c101 99 189 180 196 180 7 0 94 -81 193 -180 l180 -180 64 0 63 0 -242 248
c-134 136 -249 249 -257 250 -8 2 -102 -85 -214 -197z"/>
<path d="M1063 1717 l-148 -147 70 0 70 0 77 77 78 78 78 -78 78 -78 67 3 67
3 -145 145 -144 144 -148 -147z"/>
<path d="M1222 1524 c-6 -11 -76 -192 -157 -404 -147 -388 -170 -433 -219
-443 -11 -2 24 -5 79 -5 72 -1 95 1 83 9 -10 5 -18 21 -18 34 0 27 77 253 93
273 7 9 44 12 141 10 l131 -3 58 -145 c32 -80 56 -152 54 -161 -7 -25 54 -30
290 -22 120 4 190 10 165 13 -23 4 -47 11 -53 17 -19 19 -28 93 -29 240 l0
143 26 6 c15 4 78 4 140 1 125 -7 170 -22 180 -62 9 -38 24 -30 24 13 0 20 4
53 10 71 5 19 8 36 6 38 -2 2 -26 -3 -52 -12 -38 -12 -82 -15 -189 -13 l-140
3 0 160 0 160 150 0 c83 0 162 -3 177 -8 18 -4 35 -21 47 -45 13 -25 21 -32
25 -22 7 23 27 123 24 124 -2 1 -158 -1 -348 -4 -190 -3 -333 -7 -319 -8 14
-1 40 -7 57 -13 51 -18 54 -45 50 -410 -3 -291 -5 -328 -21 -352 -21 -32 -45
-34 -81 -6 -38 30 -65 89 -221 479 -76 190 -142 349 -146 354 -4 4 -12 0 -17
-10z m58 -324 l57 -155 -115 -3 c-63 -1 -116 -1 -118 1 -7 7 101 317 110 314
4 -1 34 -72 66 -157z"/>
<path d="M185 1490 c-4 -6 6 -10 22 -10 48 0 71 -11 83 -39 7 -19 10 -134 8
-373 -3 -324 -4 -347 -22 -367 -11 -12 -33 -22 -50 -23 -17 0 59 -5 169 -9
281 -12 399 10 487 89 77 69 93 136 54 216 -31 62 -84 103 -179 138 l-58 21
59 57 c96 91 106 161 33 231 -61 57 -122 69 -380 74 -142 3 -222 2 -226 -5z
m442 -48 c107 -55 124 -225 29 -283 -42 -26 -220 -28 -230 -3 -3 9 -6 78 -6
155 0 135 1 140 23 149 35 16 138 5 184 -18z m35 -360 c176 -78 223 -288 81
-358 -27 -13 -66 -20 -134 -22 -111 -4 -163 11 -179 53 -12 30 -14 338 -2 349
14 15 188 -1 234 -22z"/>
<path d="M180 540 l0 -50 1040 0 1040 0 0 50 0 50 -1040 0 -1040 0 0 -50z"/>
<path d="M204 448 c-3 -4 0 -8 5 -8 16 0 14 -183 -1 -198 -9 -9 1 -12 48 -12
48 0 65 4 79 20 22 24 23 65 2 88 -12 13 -15 29 -11 53 4 24 1 39 -9 47 -16
14 -106 22 -113 10z"/>
<path d="M1284 448 c-3 -5 0 -8 6 -8 8 0 10 -32 8 -105 l-3 -105 40 0 c32 1
37 3 23 11 -21 12 -25 79 -5 79 7 0 30 -20 50 -45 35 -41 42 -45 82 -45 34 0
43 3 39 14 -3 8 0 24 6 36 17 31 52 22 69 -17 14 -33 15 -33 84 -33 59 0 68 2
57 14 -7 10 -10 43 -8 95 3 81 3 81 -22 81 l-25 0 3 -90 c3 -70 0 -90 -10 -90
-26 0 -36 16 -70 100 -19 47 -38 85 -42 85 -5 0 -24 -38 -41 -85 -18 -46 -37
-86 -43 -88 -12 -4 -72 64 -72 83 0 7 5 17 10 20 15 9 12 71 -4 84 -15 13
-125 20 -132 9z"/>
<path d="M668 424 c-5 -4 -8 -47 -8 -95 0 -60 -4 -89 -12 -92 -7 -3 5 -6 27
-6 30 -1 36 2 27 11 -7 7 -12 37 -12 67 l0 55 63 -67 c34 -37 68 -67 75 -67 9
0 12 25 12 89 0 62 4 91 13 94 6 3 -6 6 -27 6 -31 1 -37 -2 -28 -11 7 -7 12
-37 12 -67 l0 -55 -67 73 c-38 40 -71 70 -75 65z"/>
</g>
</svg>
